# Blender v2.79 (sub 0) OBJ File: 'hand.blend'
# www.blender.org
o visual_index3_index3_mesh
v -0.018789 0.032835 0.129527
v -0.032544 0.056871 0.099737
v -0.032544 0.056871 -0.099737
v -0.018789 0.032834 -0.129527
v 0.000000 0.000000 0.140432
v 0.019041 0.032689 0.129527
v 0.032980 0.056619 0.099737
v 0.032980 0.056619 -0.099737
v 0.019041 0.032689 -0.129527
v 0.037830 -0.000145 0.129527
v 0.065524 -0.000252 0.099737
v 0.065524 -0.000252 -0.099737
v 0.037830 -0.000146 -0.129527
v 0.018789 -0.032834 0.129527
v 0.032544 -0.056871 0.099737
v 0.032544 -0.056871 -0.099737
v 0.018789 -0.032835 -0.129527
v -0.000000 -0.000000 -0.140432
v -0.019041 -0.032689 0.129527
v -0.032980 -0.056619 0.099737
v -0.032980 -0.056619 -0.099737
v -0.019041 -0.032689 -0.129527
v -0.037830 0.000146 0.129527
v -0.065524 0.000252 0.099737
v -0.065524 0.000252 -0.099737
v -0.037830 0.000145 -0.129527
v -0.035061 0.061270 0.079389
v -0.035061 0.061270 -0.079389
v 0.035531 0.060999 0.079389
v 0.035531 0.060999 -0.079389
v 0.000218 0.056745 0.099737
v 0.000218 0.056745 -0.099737
v 0.070592 -0.000271 0.079389
v 0.070592 -0.000272 -0.079389
v 0.049252 0.028183 -0.099737
v 0.049252 0.028184 0.099737
v 0.035061 -0.061270 0.079389
v 0.035061 -0.061270 -0.079389
v 0.049034 -0.028562 -0.099737
v 0.049034 -0.028561 0.099737
v -0.035531 -0.060999 0.079389
v -0.035531 -0.060999 -0.079389
v -0.000218 -0.056745 -0.099737
v -0.000218 -0.056745 0.099737
v -0.070592 0.000272 0.079389
v -0.070592 0.000271 -0.079389
v -0.049252 -0.028183 0.099737
v -0.049252 -0.028184 -0.099737
v -0.049034 0.028561 -0.099737
v -0.049034 0.028562 0.099737
v -0.052826 0.030771 -0.079389
v -0.052826 0.030771 0.079389
v -0.053061 -0.030364 -0.079389
v -0.053061 -0.030363 0.079389
v -0.000235 -0.061134 0.079389
v -0.000235 -0.061134 -0.079389
v 0.052826 -0.030771 0.079389
v 0.052826 -0.030771 -0.079389
v 0.053061 0.030364 0.079389
v 0.053061 0.030364 -0.079389
v 0.000235 0.061134 -0.079389
v 0.000235 0.061134 0.079389
vn 0.0038 0.9775 0.2109
vn 0.0012 0.3158 0.9488
vn 0.0012 0.3158 -0.9488
vn 0.8679 0.4967 -0.0000
vn 0.0030 0.7789 0.6271
vn 0.0030 0.7789 -0.6271
vn 0.2741 0.1568 -0.9488
vn 0.8641 -0.5033 0.0000
vn 0.6761 0.3869 0.6271
vn 0.6761 0.3869 -0.6271
vn 0.8484 0.4855 0.2109
vn 0.2741 0.1568 0.9488
vn 0.2729 -0.1590 -0.9488
vn -0.0038 -1.0000 0.0000
vn 0.6731 -0.3921 0.6271
vn 0.6731 -0.3921 -0.6271
vn 0.8447 -0.4920 0.2109
vn 0.2729 -0.1589 0.9488
vn -0.8679 -0.4967 0.0000
vn -0.0030 -0.7789 0.6271
vn -0.0030 -0.7789 -0.6271
vn -0.0038 -0.9775 0.2109
vn -0.0012 -0.3158 0.9488
vn -0.0012 -0.3158 -0.9488
vn -0.6761 -0.3869 0.6271
vn -0.6761 -0.3869 -0.6271
vn -0.8484 -0.4855 0.2109
vn -0.2741 -0.1568 0.9488
vn -0.2741 -0.1568 -0.9488
vn -0.8641 0.5033 -0.0000
vn -0.6731 0.3921 -0.6271
vn -0.8447 0.4920 0.2109
vn -0.2729 0.1590 0.9488
vn -0.2729 0.1589 -0.9488
vn -0.6731 0.3921 0.6271
vn -0.8447 0.4920 -0.2109
vn 0.0038 1.0000 -0.0000
vn -0.8484 -0.4855 -0.2109
vn -0.0038 -0.9775 -0.2109
vn 0.8447 -0.4920 -0.2109
vn 0.8484 0.4855 -0.2109
vn 0.0038 0.9775 -0.2109
s off
f 62//1 7//1 29//1
f 1//2 5//2 6//2
f 18//3 4//3 9//3
f 30//4 59//4 60//4
f 6//5 7//5 31//5
f 32//6 8//6 9//6
f 18//7 9//7 13//7
f 57//8 38//8 58//8
f 10//9 11//9 36//9
f 35//10 12//10 13//10
f 59//11 11//11 33//11
f 6//12 5//12 10//12
f 18//13 13//13 17//13
f 55//14 42//14 56//14
f 14//15 15//15 40//15
f 39//16 16//16 17//16
f 57//17 15//17 37//17
f 10//18 5//18 14//18
f 41//19 53//19 42//19
f 19//20 20//20 44//20
f 43//21 21//21 22//21
f 55//22 20//22 41//22
f 14//23 5//23 19//23
f 18//24 17//24 22//24
f 23//25 24//25 47//25
f 48//26 25//26 26//26
f 54//27 24//27 45//27
f 19//28 5//28 23//28
f 18//29 22//29 26//29
f 51//30 27//30 28//30
f 49//31 3//31 4//31
f 52//32 2//32 27//32
f 23//33 5//33 1//33
f 18//34 26//34 4//34
f 1//35 2//35 50//35
f 49//36 28//36 3//36
f 25//36 51//36 49//36
f 61//37 29//37 30//37
f 45//32 50//32 52//32
f 48//38 46//38 25//38
f 21//38 53//38 48//38
f 45//30 51//30 46//30
f 41//27 47//27 54//27
f 53//19 45//19 46//19
f 37//22 44//22 55//22
f 43//39 42//39 21//39
f 16//39 56//39 43//39
f 38//14 55//14 56//14
f 33//17 40//17 57//17
f 39//40 38//40 16//40
f 12//40 58//40 39//40
f 34//8 57//8 58//8
f 29//11 36//11 59//11
f 35//41 34//41 12//41
f 8//41 60//41 35//41
f 32//42 30//42 8//42
f 3//42 61//42 32//42
f 59//4 34//4 60//4
f 27//1 31//1 62//1
f 27//37 61//37 28//37
f 62//1 31//1 7//1
f 30//4 29//4 59//4
f 31//5 2//5 1//5
f 1//5 6//5 31//5
f 9//6 4//6 32//6
f 4//6 3//6 32//6
f 57//8 37//8 38//8
f 36//9 7//9 6//9
f 6//9 10//9 36//9
f 13//10 9//10 35//10
f 9//10 8//10 35//10
f 59//11 36//11 11//11
f 55//14 41//14 42//14
f 40//15 11//15 10//15
f 10//15 14//15 40//15
f 17//16 13//16 39//16
f 13//16 12//16 39//16
f 57//17 40//17 15//17
f 41//19 54//19 53//19
f 44//20 15//20 14//20
f 14//20 19//20 44//20
f 22//21 17//21 43//21
f 17//21 16//21 43//21
f 55//22 44//22 20//22
f 47//25 20//25 19//25
f 19//25 23//25 47//25
f 26//26 22//26 48//26
f 22//26 21//26 48//26
f 54//27 47//27 24//27
f 51//30 52//30 27//30
f 4//31 26//31 49//31
f 26//31 25//31 49//31
f 52//32 50//32 2//32
f 50//35 24//35 23//35
f 23//35 1//35 50//35
f 49//36 51//36 28//36
f 25//36 46//36 51//36
f 61//37 62//37 29//37
f 45//32 24//32 50//32
f 48//38 53//38 46//38
f 21//38 42//38 53//38
f 45//30 52//30 51//30
f 41//27 20//27 47//27
f 53//19 54//19 45//19
f 37//22 15//22 44//22
f 43//39 56//39 42//39
f 16//39 38//39 56//39
f 38//14 37//14 55//14
f 33//17 11//17 40//17
f 39//40 58//40 38//40
f 12//40 34//40 58//40
f 34//8 33//8 57//8
f 29//11 7//11 36//11
f 35//41 60//41 34//41
f 8//41 30//41 60//41
f 32//42 61//42 30//42
f 3//42 28//42 61//42
f 59//4 33//4 34//4
f 27//1 2//1 31//1
f 27//37 62//37 61//37
