# Blender v2.79 (sub 0) OBJ File: 'hand.blend'
# www.blender.org
o visual_index0_index0_mesh
v 0.000000 0.000000 0.035905
v -0.031925 0.003479 0.016057
v -0.006556 0.031438 0.016057
v 0.027873 0.015950 0.016057
v 0.023783 -0.021580 0.016057
v -0.013175 -0.029287 0.016057
v -0.023783 0.021580 -0.016057
v 0.013175 0.029287 -0.016057
v 0.031925 -0.003479 -0.016057
v 0.006556 -0.031438 -0.016057
v -0.027873 -0.015950 -0.016057
v -0.000000 -0.000000 -0.035905
v -0.003854 0.018479 0.030543
v -0.018765 0.002045 0.030543
v -0.022619 0.020524 0.018877
v -0.026509 -0.015169 0.018877
v -0.007744 -0.017215 0.030543
v 0.016384 0.009375 0.030543
v 0.012530 0.027854 0.018877
v 0.013979 -0.012685 0.030543
v 0.030363 -0.003309 0.018877
v 0.006235 -0.029899 0.018877
v -0.035149 -0.007330 0.000000
v -0.024128 -0.026590 0.000000
v -0.017833 0.031163 -0.000000
v -0.032744 0.014730 -0.000000
v 0.024128 0.026590 -0.000000
v 0.003890 0.035694 -0.000000
v 0.032744 -0.014730 -0.000000
v 0.035149 0.007330 -0.000000
v -0.003890 -0.035694 0.000000
v 0.017833 -0.031163 0.000000
v -0.030363 0.003309 -0.018877
v -0.006235 0.029899 -0.018877
v 0.026509 0.015169 -0.018877
v 0.022619 -0.020524 -0.018877
v -0.012530 -0.027854 -0.018877
v -0.013979 0.012685 -0.030543
v -0.016384 -0.009375 -0.030543
v 0.007744 0.017215 -0.030543
v 0.018765 -0.002045 -0.030543
v 0.003854 -0.018479 -0.030543
vn 0.2454 -0.2226 -0.9435
vn 0.7409 0.1151 -0.6617
vn -0.1359 -0.3021 -0.9435
vn -0.3294 0.0359 -0.9435
vn -0.0676 0.3243 -0.9435
vn 0.9186 0.2168 -0.3304
vn 0.4901 -0.8066 -0.3304
vn -0.6157 -0.7154 -0.3304
vn -0.8706 0.3645 -0.3304
vn 0.0776 0.9406 -0.3304
vn 0.9862 -0.1075 -0.1256
vn 0.2025 -0.9712 -0.1256
vn -0.8611 -0.4927 -0.1256
vn -0.7347 0.6667 -0.1256
vn 0.4070 0.9047 -0.1256
vn 0.6671 -0.3423 0.6617
vn -0.1194 -0.7402 0.6617
vn -0.7409 -0.1151 0.6617
vn -0.3385 0.6690 0.6617
vn 0.5317 0.5286 0.6617
vn 0.1359 0.3021 0.9435
vn 0.2490 0.5536 0.7947
vn 0.0428 0.7485 0.6617
vn -0.2454 0.2226 0.9435
vn -0.4496 0.4079 0.7947
vn -0.6987 0.2720 0.6617
vn -0.2876 -0.1645 0.9435
vn -0.5269 -0.3015 0.7947
vn -0.4746 -0.5804 0.6617
vn 0.0676 -0.3243 0.9435
vn 0.1239 -0.5943 0.7947
vn 0.4053 -0.6308 0.6617
vn 0.3294 -0.0359 0.9435
vn 0.6035 -0.0658 0.7947
vn 0.7251 0.1906 0.6617
vn 0.6157 0.7154 0.3304
vn 0.4030 0.8958 0.1876
vn 0.1268 0.9353 0.3304
vn -0.4901 0.8066 0.3304
vn -0.7274 0.6601 0.1876
vn -0.8503 0.4096 0.3304
vn -0.9186 -0.2168 0.3304
vn -0.8525 -0.4878 0.1876
vn -0.6524 -0.6821 0.3304
vn -0.0776 -0.9406 0.3304
vn 0.2005 -0.9616 0.1876
vn 0.4471 -0.8312 0.3304
vn 0.8706 -0.3645 0.3304
vn 0.9765 -0.1064 0.1876
vn 0.9287 0.1684 0.3304
vn -0.2025 0.9712 0.1256
vn -0.2005 0.9616 -0.1876
vn -0.4471 0.8312 -0.3304
vn -0.9862 0.1075 0.1256
vn -0.9765 0.1064 -0.1876
vn -0.9287 -0.1684 -0.3304
vn -0.4070 -0.9047 0.1256
vn -0.4030 -0.8958 -0.1876
vn -0.1268 -0.9353 -0.3304
vn 0.7347 -0.6667 0.1256
vn 0.7274 -0.6601 -0.1876
vn 0.8503 -0.4096 -0.3304
vn 0.8611 0.4927 0.1256
vn 0.8525 0.4878 -0.1876
vn 0.6524 0.6821 -0.3304
vn 0.1194 0.7402 -0.6617
vn -0.1239 0.5943 -0.7947
vn -0.4053 0.6308 -0.6617
vn -0.6671 0.3423 -0.6617
vn -0.6035 0.0658 -0.7947
vn -0.7251 -0.1906 -0.6617
vn -0.5317 -0.5286 -0.6617
vn -0.2490 -0.5536 -0.7947
vn -0.0428 -0.7485 -0.6617
vn 0.4746 0.5804 -0.6617
vn 0.5269 0.3015 -0.7947
vn 0.2876 0.1645 -0.9435
vn 0.3385 -0.6690 -0.6617
vn 0.4496 -0.4079 -0.7947
vn 0.6987 -0.2720 -0.6617
s off
f 1//1 14//1 13//1
f 2//2 14//2 16//2
f 1//3 13//3 18//3
f 1//4 18//4 20//4
f 1//5 20//5 17//5
f 2//6 16//6 23//6
f 3//7 15//7 25//7
f 4//8 19//8 27//8
f 5//9 21//9 29//9
f 6//10 22//10 31//10
f 2//11 23//11 26//11
f 3//12 25//12 28//12
f 4//13 27//13 30//13
f 5//14 29//14 32//14
f 6//15 31//15 24//15
f 7//16 33//16 38//16
f 8//17 34//17 40//17
f 9//18 35//18 41//18
f 10//19 36//19 42//19
f 11//20 37//20 39//20
f 39//21 42//21 12//21
f 39//22 37//22 42//22
f 37//23 10//23 42//23
f 42//24 41//24 12//24
f 42//25 36//25 41//25
f 36//26 9//26 41//26
f 41//27 40//27 12//27
f 41//28 35//28 40//28
f 35//29 8//29 40//29
f 40//30 38//30 12//30
f 40//31 34//31 38//31
f 34//32 7//32 38//32
f 38//33 39//33 12//33
f 38//34 33//34 39//34
f 33//35 11//35 39//35
f 24//36 37//36 11//36
f 24//37 31//37 37//37
f 31//38 10//38 37//38
f 32//39 36//39 10//39
f 32//40 29//40 36//40
f 29//41 9//41 36//41
f 30//42 35//42 9//42
f 30//43 27//43 35//43
f 27//44 8//44 35//44
f 28//45 34//45 8//45
f 28//46 25//46 34//46
f 25//47 7//47 34//47
f 26//48 33//48 7//48
f 26//49 23//49 33//49
f 23//50 11//50 33//50
f 31//51 32//51 10//51
f 31//52 22//52 32//52
f 22//53 5//53 32//53
f 29//54 30//54 9//54
f 29//55 21//55 30//55
f 21//56 4//56 30//56
f 27//57 28//57 8//57
f 27//58 19//58 28//58
f 19//59 3//59 28//59
f 25//60 26//60 7//60
f 25//61 15//61 26//61
f 15//62 2//62 26//62
f 23//63 24//63 11//63
f 23//64 16//64 24//64
f 16//65 6//65 24//65
f 17//66 22//66 6//66
f 17//67 20//67 22//67
f 20//68 5//68 22//68
f 20//69 21//69 5//69
f 20//70 18//70 21//70
f 18//71 4//71 21//71
f 18//72 19//72 4//72
f 18//73 13//73 19//73
f 13//74 3//74 19//74
f 16//75 17//75 6//75
f 16//76 14//76 17//76
f 14//77 1//77 17//77
f 13//78 15//78 3//78
f 13//79 14//79 15//79
f 14//80 2//80 15//80
