# Blender v2.79 (sub 0) OBJ File: 'hand.blend'
# www.blender.org
o visual_middle3_middle3_mesh
v -0.019829 0.032217 0.155905
v -0.034345 0.055801 0.120047
v -0.034346 0.055801 -0.120047
v -0.019829 0.032217 -0.155905
v 0.000000 0.000000 0.169029
v 0.017986 0.033281 0.155905
v 0.031153 0.057645 0.120047
v 0.031153 0.057645 -0.120047
v 0.017986 0.033281 -0.155905
v 0.037815 0.001064 0.155905
v 0.065498 0.001843 0.120047
v 0.065498 0.001843 -0.120047
v 0.037815 0.001064 -0.155905
v 0.019829 -0.032217 0.155905
v 0.034346 -0.055801 0.120047
v 0.034345 -0.055801 -0.120047
v 0.019829 -0.032217 -0.155905
v -0.000000 -0.000000 -0.169029
v -0.017986 -0.033281 0.155905
v -0.031153 -0.057645 0.120047
v -0.031153 -0.057645 -0.120047
v -0.017986 -0.033281 -0.155905
v -0.037815 -0.001064 0.155905
v -0.065498 -0.001843 0.120047
v -0.065498 -0.001843 -0.120047
v -0.037815 -0.001064 -0.155905
v -0.037002 0.060118 0.095556
v -0.037002 0.060118 -0.095556
v 0.033562 0.062104 0.095556
v 0.033562 0.062104 -0.095556
v -0.001596 0.056723 0.120047
v -0.001597 0.056723 -0.120047
v 0.070564 0.001986 0.095556
v 0.070564 0.001986 -0.095556
v 0.048325 0.029744 -0.120047
v 0.048325 0.029744 0.120047
v 0.037002 -0.060118 0.095556
v 0.037002 -0.060118 -0.095556
v 0.049922 -0.026979 -0.120047
v 0.049922 -0.026979 0.120047
v -0.033562 -0.062104 0.095556
v -0.033562 -0.062104 -0.095556
v 0.001596 -0.056723 -0.120047
v 0.001596 -0.056723 0.120047
v -0.070564 -0.001986 0.095556
v -0.070564 -0.001986 -0.095556
v -0.048325 -0.029744 0.120047
v -0.048325 -0.029744 -0.120047
v -0.049922 0.026979 -0.120047
v -0.049922 0.026979 0.120047
v -0.053783 0.029066 -0.095556
v -0.053783 0.029066 0.095556
v -0.052063 -0.032045 -0.095556
v -0.052063 -0.032045 0.095556
v 0.001720 -0.061111 0.095556
v 0.001720 -0.061111 -0.095556
v 0.053783 -0.029066 0.095556
v 0.053783 -0.029066 -0.095556
v 0.052063 0.032045 0.095556
v 0.052063 0.032045 -0.095556
v -0.001720 0.061111 -0.095556
v -0.001720 0.061111 0.095556
vn -0.0277 0.9839 0.1764
vn -0.0105 0.3717 0.9283
vn -0.0105 0.3717 -0.9283
vn 0.8516 0.5242 -0.0000
vn -0.0234 0.8309 0.5560
vn -0.0234 0.8309 -0.5560
vn 0.3167 0.1949 -0.9283
vn 0.8797 -0.4754 -0.0000
vn 0.7079 0.4357 0.5560
vn 0.7079 0.4357 -0.5560
vn 0.8383 0.5159 0.1764
vn 0.3167 0.1949 0.9283
vn 0.3272 -0.1768 -0.9283
vn 0.0281 -0.9996 0.0000
vn 0.7313 -0.3952 0.5560
vn 0.7313 -0.3952 -0.5560
vn 0.8660 -0.4680 0.1764
vn 0.3272 -0.1768 0.9283
vn -0.8516 -0.5242 0.0000
vn 0.0234 -0.8309 0.5560
vn 0.0234 -0.8309 -0.5560
vn 0.0277 -0.9839 0.1764
vn 0.0105 -0.3717 0.9283
vn 0.0105 -0.3717 -0.9283
vn -0.7079 -0.4357 0.5560
vn -0.7079 -0.4357 -0.5560
vn -0.8383 -0.5159 0.1764
vn -0.3167 -0.1949 0.9283
vn -0.3167 -0.1949 -0.9283
vn -0.8797 0.4754 0.0000
vn -0.7313 0.3952 -0.5560
vn -0.8660 0.4680 0.1764
vn -0.3272 0.1768 0.9283
vn -0.3272 0.1768 -0.9283
vn -0.7313 0.3952 0.5560
vn -0.8660 0.4680 -0.1764
vn -0.0281 0.9996 -0.0000
vn -0.8383 -0.5159 -0.1764
vn 0.0277 -0.9839 -0.1764
vn 0.8660 -0.4680 -0.1764
vn 0.8383 0.5159 -0.1764
vn -0.0277 0.9839 -0.1764
s off
f 62//1 7//1 29//1
f 1//2 5//2 6//2
f 18//3 4//3 9//3
f 30//4 59//4 60//4
f 6//5 7//5 31//5
f 32//6 8//6 9//6
f 18//7 9//7 13//7
f 57//8 38//8 58//8
f 10//9 11//9 36//9
f 35//10 12//10 13//10
f 59//11 11//11 33//11
f 6//12 5//12 10//12
f 18//13 13//13 17//13
f 55//14 42//14 56//14
f 14//15 15//15 40//15
f 39//16 16//16 17//16
f 57//17 15//17 37//17
f 10//18 5//18 14//18
f 41//19 53//19 42//19
f 19//20 20//20 44//20
f 43//21 21//21 22//21
f 55//22 20//22 41//22
f 14//23 5//23 19//23
f 18//24 17//24 22//24
f 23//25 24//25 47//25
f 48//26 25//26 26//26
f 54//27 24//27 45//27
f 19//28 5//28 23//28
f 18//29 22//29 26//29
f 51//30 27//30 28//30
f 49//31 3//31 4//31
f 52//32 2//32 27//32
f 23//33 5//33 1//33
f 18//34 26//34 4//34
f 1//35 2//35 50//35
f 49//36 28//36 3//36
f 25//36 51//36 49//36
f 61//37 29//37 30//37
f 45//32 50//32 52//32
f 48//38 46//38 25//38
f 21//38 53//38 48//38
f 45//30 51//30 46//30
f 41//27 47//27 54//27
f 53//19 45//19 46//19
f 37//22 44//22 55//22
f 43//39 42//39 21//39
f 16//39 56//39 43//39
f 38//14 55//14 56//14
f 33//17 40//17 57//17
f 39//40 38//40 16//40
f 12//40 58//40 39//40
f 34//8 57//8 58//8
f 29//11 36//11 59//11
f 35//41 34//41 12//41
f 8//41 60//41 35//41
f 32//42 30//42 8//42
f 3//42 61//42 32//42
f 59//4 34//4 60//4
f 27//1 31//1 62//1
f 27//37 61//37 28//37
f 62//1 31//1 7//1
f 30//4 29//4 59//4
f 31//5 2//5 1//5
f 1//5 6//5 31//5
f 9//6 4//6 32//6
f 4//6 3//6 32//6
f 57//8 37//8 38//8
f 36//9 7//9 6//9
f 6//9 10//9 36//9
f 13//10 9//10 35//10
f 9//10 8//10 35//10
f 59//11 36//11 11//11
f 55//14 41//14 42//14
f 40//15 11//15 10//15
f 10//15 14//15 40//15
f 17//16 13//16 39//16
f 13//16 12//16 39//16
f 57//17 40//17 15//17
f 41//19 54//19 53//19
f 44//20 15//20 14//20
f 14//20 19//20 44//20
f 22//21 17//21 43//21
f 17//21 16//21 43//21
f 55//22 44//22 20//22
f 47//25 20//25 19//25
f 19//25 23//25 47//25
f 26//26 22//26 48//26
f 22//26 21//26 48//26
f 54//27 47//27 24//27
f 51//30 52//30 27//30
f 4//31 26//31 49//31
f 26//31 25//31 49//31
f 52//32 50//32 2//32
f 50//35 24//35 23//35
f 23//35 1//35 50//35
f 49//36 51//36 28//36
f 25//36 46//36 51//36
f 61//37 62//37 29//37
f 45//32 24//32 50//32
f 48//38 53//38 46//38
f 21//38 42//38 53//38
f 45//30 52//30 51//30
f 41//27 20//27 47//27
f 53//19 54//19 45//19
f 37//22 15//22 44//22
f 43//39 56//39 42//39
f 16//39 38//39 56//39
f 38//14 37//14 55//14
f 33//17 11//17 40//17
f 39//40 58//40 38//40
f 12//40 34//40 58//40
f 34//8 33//8 57//8
f 29//11 7//11 36//11
f 35//41 60//41 34//41
f 8//41 30//41 60//41
f 32//42 61//42 30//42
f 3//42 28//42 61//42
f 59//4 33//4 34//4
f 27//1 2//1 31//1
f 27//37 62//37 61//37
