# Blender v2.79 (sub 0) OBJ File: 'hand.blend'
# www.blender.org
o visual_palm_palm_mesh
v 0.288665 -0.075576 -0.315507
v 0.297187 -0.068010 -0.320611
v 0.284190 -0.068010 -0.332564
v 0.391913 -0.068010 0.267463
v 0.399664 -0.068010 0.248846
v 0.392075 -0.075576 0.250370
v 0.288665 0.075746 -0.315507
v 0.284190 0.068180 -0.332564
v 0.297187 0.068180 -0.320611
v 0.391913 0.068180 0.267463
v 0.392075 0.075746 0.250370
v 0.399664 0.068180 0.248846
v -0.240902 -0.068010 -0.329309
v -0.232475 -0.075576 -0.324679
v -0.228170 -0.068010 -0.341581
v -0.397195 -0.068010 0.256931
v -0.399545 -0.075576 0.239096
v -0.407833 -0.068010 0.239229
v -0.240902 0.068180 -0.329309
v -0.228170 0.068180 -0.341581
v -0.232475 0.075746 -0.324679
v -0.397195 0.068180 0.256931
v -0.407833 0.068180 0.239229
v -0.399545 0.075746 0.239096
v 0.399492 -0.068010 -0.035163
v 0.395534 -0.075576 -0.016156
v 0.402937 -0.068010 -0.003340
v 0.399492 0.068180 -0.035163
v 0.402937 0.068180 -0.003340
v 0.395534 0.075746 -0.016156
v -0.426974 0.068180 -0.003333
v -0.420440 0.068180 -0.028868
v -0.419408 0.075746 -0.010562
v -0.426974 -0.068010 -0.003333
v -0.419408 -0.075576 -0.010562
v -0.420440 -0.068010 -0.028868
v 0.360592 0.068180 -0.182620
v 0.369688 0.068180 -0.155948
v 0.359949 0.075746 -0.160370
v -0.226940 0.068180 0.308122
v -0.218937 0.075746 0.293399
v -0.211875 0.068180 0.310377
v -0.295949 0.075746 -0.172245
v 0.203155 -0.068010 0.308730
v 0.195256 -0.075576 0.293399
v 0.188058 -0.068010 0.310377
v 0.369688 -0.068010 -0.155948
v 0.360592 -0.068010 -0.182620
v 0.359949 -0.075576 -0.160370
v 0.188058 0.068180 0.310377
v 0.195256 0.075746 0.293399
v 0.203155 0.068180 0.308730
v -0.426974 0.068180 0.128056
v -0.419408 0.075746 0.141345
v -0.423835 0.068180 0.160480
v -0.426974 -0.068010 0.128056
v -0.423835 -0.068010 0.160480
v -0.419408 -0.075576 0.141345
v -0.211875 -0.068010 0.310377
v -0.218937 -0.075576 0.293399
v -0.226940 -0.068010 0.308122
vn 0.9999 0.0000 0.0130
vn 0.9709 0.0000 -0.2396
vn 0.2136 0.0000 0.9769
vn -0.9800 0.0000 0.1991
vn 0.0000 0.0000 1.0000
vn -0.2879 0.0000 0.9576
vn 0.9087 0.0000 -0.4175
vn 0.0000 1.0000 -0.0000
vn -1.0000 0.0000 0.0000
vn 0.4210 -0.7830 -0.4578
vn 0.7039 -0.6470 0.2931
vn 0.4210 0.7830 -0.4578
vn 0.7039 0.6470 0.2931
vn -0.4413 -0.7717 -0.4579
vn -0.6220 -0.6880 0.3738
vn -0.4413 0.7717 -0.4579
vn -0.6220 0.6880 0.3738
vn 0.7799 -0.6201 -0.0844
vn 0.7799 0.6201 -0.0844
vn -0.7818 0.5906 -0.2001
vn -0.7818 -0.5906 -0.2001
vn 0.6594 0.7174 -0.2249
vn -0.0641 0.9013 0.4284
vn 0.0461 -0.9050 0.4229
vn 0.6594 -0.7174 -0.2249
vn 0.0461 0.9050 0.4229
vn -0.7674 0.6369 0.0743
vn -0.7674 -0.6369 0.0743
vn -0.0641 -0.9013 0.4284
vn 0.5527 0.7938 -0.2539
vn -0.1206 0.9081 0.4011
vn 0.0883 -0.9105 0.4039
vn 0.6499 -0.7429 -0.1604
vn -0.7071 0.7071 0.0000
vn -0.7071 -0.7071 0.0000
vn 0.7069 -0.7072 0.0092
vn 0.6499 0.7429 -0.1604
vn 0.0000 0.9134 0.4071
vn 0.0072 -0.9134 -0.4070
vn 0.0000 -0.9134 0.4071
vn 0.6769 0.0000 -0.7360
vn 0.5527 -0.7938 -0.2539
vn 0.9232 0.0000 0.3844
vn 0.7069 0.7072 0.0092
vn 0.0072 0.9134 -0.4070
vn 0.0883 0.9105 0.4039
vn -0.6668 0.7328 0.1355
vn -0.6940 0.0000 -0.7200
vn -0.8571 0.0000 0.5151
vn -0.6668 -0.7328 0.1355
vn -0.1206 -0.9081 0.4011
vn -0.9688 0.0000 -0.2479
vn 0.9942 0.0000 -0.1076
vn 0.9465 0.0000 -0.3228
vn -0.8584 -0.0000 -0.5130
vn 0.1084 0.0000 0.9941
vn -0.1480 0.0000 0.9890
vn -0.9953 0.0000 0.0964
vn 0.0176 0.0000 -0.9998
vn -0.5104 -0.8045 -0.3037
vn -0.5311 -0.7857 -0.3173
vn -0.0000 -1.0000 -0.0000
vn -0.5311 0.7857 -0.3173
vn -0.5104 0.8045 -0.3037
s off
f 12//1 5//1 27//1 29//1
f 28//2 25//2 47//2 38//2
f 52//3 44//3 4//3 10//3
f 18//4 23//4 55//4 57//4
f 59//5 46//5 50//5 42//5
f 22//6 16//6 61//6 40//6
f 48//7 2//7 9//7 37//7
f 54//8 24//8 41//8 51//8 11//8 30//8 39//8 7//8 21//8 43//8 33//8
f 53//9 31//9 34//9 56//9
f 1//10 3//10 2//10
f 4//11 6//11 5//11
f 7//12 9//12 8//12
f 10//13 12//13 11//13
f 13//14 15//14 14//14
f 16//15 18//15 17//15
f 19//16 21//16 20//16
f 22//17 24//17 23//17
f 25//18 27//18 26//18
f 28//19 30//19 29//19
f 31//20 33//20 32//20
f 34//21 36//21 35//21
f 37//22 39//22 38//22
f 40//23 42//23 41//23
f 44//24 46//24 45//24
f 47//25 49//25 48//25
f 50//26 52//26 51//26
f 53//27 55//27 54//27
f 56//28 58//28 57//28
f 59//29 61//29 60//29
f 39//30 37//30 9//30 7//30
f 40//31 41//31 24//31 22//31
f 44//32 45//32 6//32 4//32
f 49//33 47//33 25//33 26//33
f 53//34 54//34 33//34 31//34
f 58//35 56//35 34//35 35//35
f 26//36 27//36 5//36 6//36
f 30//37 28//37 38//37 39//37
f 50//38 51//38 41//38 42//38
f 3//39 1//39 14//39 15//39
f 59//40 60//40 45//40 46//40
f 8//41 9//41 2//41 3//41
f 1//42 2//42 48//42 49//42
f 4//43 5//43 12//43 10//43
f 11//44 12//44 29//44 30//44
f 20//45 21//45 7//45 8//45
f 10//46 11//46 51//46 52//46
f 23//47 24//47 54//47 55//47
f 15//48 13//48 19//48 20//48
f 22//49 23//49 18//49 16//49
f 17//50 18//50 57//50 58//50
f 16//51 17//51 60//51 61//51
f 31//52 32//52 36//52 34//52
f 27//53 25//53 28//53 29//53
f 47//54 48//54 37//54 38//54
f 19//55 13//55 36//55 32//55
f 52//56 50//56 46//56 44//56
f 42//57 40//57 61//57 59//57
f 55//58 53//58 56//58 57//58
f 8//59 3//59 15//59 20//59
f 35//60 36//60 14//60
f 36//61 13//61 14//61
f 1//62 35//62 14//62
f 49//62 26//62 1//62
f 26//62 6//62 1//62
f 6//62 45//62 1//62
f 45//62 60//62 1//62
f 60//62 17//62 1//62
f 17//62 58//62 1//62
f 58//62 35//62 1//62
f 32//63 21//63 19//63
f 32//64 33//64 21//64
