# Blender v2.79 (sub 0) OBJ File: 'hand.blend'
# www.blender.org
o visual_thumb3_thumb3_mesh
v -0.096039 -0.029273 0.023678
v -0.074153 -0.053701 0.037035
v 0.073424 -0.058501 0.030668
v 0.095618 -0.035507 0.015410
v -0.103896 0.003380 0.004482
v -0.097692 -0.029971 -0.014110
v -0.077016 -0.054910 -0.028416
v 0.070561 -0.059711 -0.034782
v 0.093966 -0.036205 -0.022378
v -0.097482 0.002419 -0.033654
v -0.076651 0.001191 -0.062267
v 0.070926 -0.003610 -0.068634
v 0.094176 -0.003815 -0.041922
v -0.095618 0.035507 -0.015410
v -0.073424 0.058501 -0.030668
v 0.074153 0.053701 -0.037035
v 0.096039 0.029273 -0.023678
v 0.103896 -0.003380 -0.004482
v -0.093966 0.036205 0.022378
v -0.070561 0.059711 0.034782
v 0.077016 0.054910 0.028416
v 0.097692 0.029971 0.014110
v -0.094176 0.003815 0.041922
v -0.070926 0.003610 0.068634
v 0.076651 -0.001191 0.062267
v 0.097482 -0.002419 0.033654
v -0.059128 -0.058530 0.039004
v 0.058342 -0.062351 0.033936
v -0.062212 -0.059833 -0.031509
v 0.055258 -0.063654 -0.036577
v -0.075585 -0.054306 0.004310
v 0.071993 -0.059106 -0.002057
v -0.061819 0.000608 -0.067979
v 0.055650 -0.003213 -0.073047
v 0.070743 -0.031660 -0.051708
v -0.076834 -0.026860 -0.045341
v -0.058342 0.062351 -0.033936
v 0.059128 0.058530 -0.039004
v 0.072539 0.025046 -0.052834
v -0.075038 0.029846 -0.046468
v -0.055258 0.063654 0.036577
v 0.062212 0.059833 0.031509
v 0.075585 0.054306 -0.004310
v -0.071993 0.059106 0.002057
v -0.055650 0.003213 0.073047
v 0.061819 -0.000608 0.067979
v -0.070743 0.031660 0.051708
v 0.076834 0.026860 0.045341
v 0.075038 -0.029846 0.046468
v -0.072539 -0.025046 0.052834
v 0.060081 -0.031479 0.050958
v -0.057389 -0.027658 0.056025
v 0.062015 0.029613 0.049744
v -0.055454 0.033434 0.054812
v -0.056800 0.063003 0.001320
v 0.060670 0.059182 -0.003747
v -0.060081 0.031479 -0.050958
v 0.057389 0.027658 -0.056025
v -0.062015 -0.029613 -0.049744
v 0.055454 -0.033434 -0.054812
v 0.056800 -0.063003 -0.001320
v -0.060670 -0.059182 0.003747
vn -0.3095 -0.9504 0.0311
vn -0.9771 -0.2077 0.0466
vn 0.9619 -0.2708 -0.0371
vn -0.0537 -0.5156 -0.8551
vn -0.7562 -0.6528 0.0451
vn 0.7133 -0.7006 -0.0183
vn 0.9567 -0.1550 -0.2466
vn -0.0220 0.4837 -0.8750
vn -0.7711 -0.3253 -0.5474
vn 0.6984 -0.3731 -0.6108
vn -0.3307 -0.4860 -0.8090
vn -0.9823 -0.0919 -0.1629
vn 0.9642 0.0843 -0.2513
vn 0.0317 0.9993 -0.0198
vn -0.7496 0.3514 -0.5608
vn 0.7198 0.3036 -0.6242
vn -0.3003 0.4735 -0.8281
vn -0.9748 0.1473 -0.1677
vn 0.0537 0.5156 0.8551
vn -0.7133 0.7006 0.0183
vn 0.7562 0.6528 -0.0451
vn -0.2487 0.9685 -0.0070
vn -0.9619 0.2708 0.0371
vn 0.9771 0.2077 -0.0466
vn -0.6984 0.3731 0.6108
vn 0.7711 0.3253 0.5474
vn -0.2276 0.5042 0.8331
vn -0.9567 0.1550 0.2466
vn 0.9823 0.0919 0.1629
vn 0.0220 -0.4837 0.8750
vn 0.7496 -0.3514 0.5608
vn -0.2580 -0.4553 0.8521
vn -0.9642 -0.0843 0.2513
vn 0.9748 -0.1473 0.1677
vn -0.7198 -0.3036 0.6242
vn 0.3003 -0.4735 0.8281
vn -0.0317 -0.9993 0.0198
vn 0.3307 0.4860 0.8090
vn 0.3095 0.9504 -0.0311
vn 0.2580 0.4553 -0.8521
vn 0.2276 -0.5042 -0.8331
vn 0.2487 -0.9685 0.0070
s off
f 62//1 7//1 29//1
f 1//2 5//2 6//2
f 18//3 4//3 9//3
f 30//4 59//4 60//4
f 6//5 7//5 31//5
f 32//6 8//6 9//6
f 18//7 9//7 13//7
f 57//8 38//8 58//8
f 10//9 11//9 36//9
f 35//10 12//10 13//10
f 59//11 11//11 33//11
f 6//12 5//12 10//12
f 18//13 13//13 17//13
f 55//14 42//14 56//14
f 14//15 15//15 40//15
f 39//16 16//16 17//16
f 57//17 15//17 37//17
f 10//18 5//18 14//18
f 41//19 53//19 42//19
f 19//20 20//20 44//20
f 43//21 21//21 22//21
f 55//22 20//22 41//22
f 14//23 5//23 19//23
f 18//24 17//24 22//24
f 23//25 24//25 47//25
f 48//26 25//26 26//26
f 54//27 24//27 45//27
f 19//28 5//28 23//28
f 18//29 22//29 26//29
f 51//30 27//30 28//30
f 49//31 3//31 4//31
f 52//32 2//32 27//32
f 23//33 5//33 1//33
f 18//34 26//34 4//34
f 1//35 2//35 50//35
f 49//36 28//36 3//36
f 25//36 51//36 49//36
f 61//37 29//37 30//37
f 45//32 50//32 52//32
f 48//38 46//38 25//38
f 21//38 53//38 48//38
f 45//30 51//30 46//30
f 41//27 47//27 54//27
f 53//19 45//19 46//19
f 37//22 44//22 55//22
f 43//39 42//39 21//39
f 16//39 56//39 43//39
f 38//14 55//14 56//14
f 33//17 40//17 57//17
f 39//40 38//40 16//40
f 12//40 58//40 39//40
f 34//8 57//8 58//8
f 29//11 36//11 59//11
f 35//41 34//41 12//41
f 8//41 60//41 35//41
f 32//42 30//42 8//42
f 3//42 61//42 32//42
f 59//4 34//4 60//4
f 27//1 31//1 62//1
f 27//37 61//37 28//37
f 62//1 31//1 7//1
f 30//4 29//4 59//4
f 31//5 2//5 1//5
f 1//5 6//5 31//5
f 9//6 4//6 32//6
f 4//6 3//6 32//6
f 57//8 37//8 38//8
f 36//9 7//9 6//9
f 6//9 10//9 36//9
f 13//10 9//10 35//10
f 9//10 8//10 35//10
f 59//11 36//11 11//11
f 55//14 41//14 42//14
f 40//15 11//15 10//15
f 10//15 14//15 40//15
f 17//16 13//16 39//16
f 13//16 12//16 39//16
f 57//17 40//17 15//17
f 41//19 54//19 53//19
f 44//20 15//20 14//20
f 14//20 19//20 44//20
f 22//21 17//21 43//21
f 17//21 16//21 43//21
f 55//22 44//22 20//22
f 47//25 20//25 19//25
f 19//25 23//25 47//25
f 26//26 22//26 48//26
f 22//26 21//26 48//26
f 54//27 47//27 24//27
f 51//30 52//30 27//30
f 4//31 26//31 49//31
f 26//31 25//31 49//31
f 52//32 50//32 2//32
f 50//35 24//35 23//35
f 23//35 1//35 50//35
f 49//36 51//36 28//36
f 25//36 46//36 51//36
f 61//37 62//37 29//37
f 45//32 24//32 50//32
f 48//38 53//38 46//38
f 21//38 42//38 53//38
f 45//30 52//30 51//30
f 41//27 20//27 47//27
f 53//19 54//19 45//19
f 37//22 15//22 44//22
f 43//39 56//39 42//39
f 16//39 38//39 56//39
f 38//14 37//14 55//14
f 33//17 11//17 40//17
f 39//40 58//40 38//40
f 12//40 34//40 58//40
f 34//8 33//8 57//8
f 29//11 7//11 36//11
f 35//41 60//41 34//41
f 8//41 30//41 60//41
f 32//42 61//42 30//42
f 3//42 28//42 61//42
f 59//4 33//4 34//4
f 27//1 2//1 31//1
f 27//37 62//37 61//37
