# Blender v2.79 (sub 0) OBJ File: 'hand.blend'
# www.blender.org
o visual_thumb0_thumb0_mesh
v -0.035853 0.001166 0.001547
v -0.014745 -0.002243 0.032661
v -0.016737 -0.030746 0.007985
v -0.017757 -0.016038 -0.026770
v -0.016397 0.021555 -0.023573
v -0.014535 0.030080 0.013157
v 0.016397 -0.021555 0.023573
v 0.014535 -0.030080 -0.013157
v 0.014745 0.002243 -0.032661
v 0.016737 0.030746 -0.007985
v 0.017757 0.016038 0.026770
v 0.035853 -0.001166 -0.001547
v -0.030911 -0.017386 0.005602
v -0.029740 -0.000633 0.020107
v -0.018504 -0.019390 0.023891
v -0.017210 0.016362 0.026931
v -0.029617 0.018366 0.008642
v -0.031511 -0.008741 -0.014826
v -0.020275 -0.027499 -0.011042
v -0.030711 0.013355 -0.012947
v -0.020075 0.003243 -0.029591
v -0.018181 0.030350 -0.006123
v 0.001771 0.008108 0.034933
v 0.001894 0.027107 0.023469
v -0.000200 -0.030742 0.018550
v 0.000971 -0.013988 0.033054
v -0.001894 -0.027107 -0.023469
v -0.001294 -0.035753 -0.003040
v -0.000971 0.013988 -0.033054
v -0.001771 -0.008108 -0.034933
v 0.001294 0.035753 0.003040
v 0.000200 0.030742 -0.018550
v 0.020075 -0.003243 0.029591
v 0.018181 -0.030350 0.006123
v 0.017210 -0.016362 -0.026931
v 0.018504 0.019390 -0.023891
v 0.020275 0.027499 0.011042
v 0.030711 -0.013355 0.012947
v 0.031511 0.008741 0.014826
v 0.029617 -0.018366 -0.008642
v 0.029740 0.000633 -0.020107
v 0.030911 0.017386 -0.005602
vn 0.9384 0.1863 -0.2910
vn 0.6247 -0.1531 -0.7658
vn 0.9576 0.2743 0.0880
vn 0.9554 -0.0592 0.2892
vn 0.9349 -0.3532 0.0346
vn 0.2828 -0.2479 -0.9266
vn 0.3338 0.7843 -0.5228
vn 0.3794 0.7178 0.5838
vn 0.3566 -0.3555 0.8640
vn 0.2969 -0.9524 -0.0695
vn 0.0856 0.0813 -0.9930
vn 0.1471 0.9618 -0.2307
vn 0.1787 0.5075 0.8429
vn 0.1366 -0.6538 0.7442
vn 0.0791 -0.9172 -0.3905
vn -0.6792 0.3487 -0.6459
vn -0.6322 0.7638 0.1303
vn -0.6247 0.1531 0.7658
vn -0.6670 -0.6395 0.3824
vn -0.7007 -0.5186 -0.4900
vn -0.9576 -0.2743 -0.0880
vn -0.8218 -0.5329 -0.2014
vn -0.6862 -0.7274 0.0035
vn -0.9384 -0.1863 0.2910
vn -0.7866 -0.3718 0.4929
vn -0.6387 -0.2348 0.7328
vn -0.9244 0.2015 0.3240
vn -0.7609 0.3388 0.5533
vn -0.6217 0.6120 0.4888
vn -0.9349 0.3532 -0.0346
vn -0.7802 0.6169 -0.1036
vn -0.6586 0.6427 -0.3913
vn -0.9554 0.0592 -0.2892
vn -0.8179 0.0781 -0.5701
vn -0.6985 -0.1851 -0.6912
vn -0.3794 -0.7178 -0.5838
vn -0.2332 -0.8980 -0.3732
vn -0.3649 -0.9267 -0.0903
vn -0.3338 -0.7843 0.5228
vn -0.1762 -0.6372 0.7503
vn -0.3055 -0.3796 0.8732
vn -0.2828 0.2479 0.9266
vn -0.1346 0.5126 0.8480
vn -0.2798 0.7069 0.6496
vn -0.2969 0.9524 0.0695
vn -0.1658 0.9624 -0.2150
vn -0.3233 0.8313 -0.4521
vn -0.3566 0.3555 -0.8640
vn -0.2268 0.0907 -0.9697
vn -0.3759 -0.1782 -0.9094
vn -0.1471 -0.9618 0.2307
vn 0.1658 -0.9624 0.2150
vn 0.3233 -0.8313 0.4521
vn -0.0856 -0.0813 0.9930
vn 0.2268 -0.0907 0.9697
vn 0.3759 0.1782 0.9094
vn -0.0791 0.9172 0.3905
vn 0.2332 0.8980 0.3732
vn 0.3649 0.9267 0.0903
vn -0.1366 0.6538 -0.7442
vn 0.1762 0.6372 -0.7503
vn 0.3055 0.3796 -0.8732
vn -0.1787 -0.5075 -0.8429
vn 0.1346 -0.5126 -0.8480
vn 0.2798 -0.7069 -0.6496
vn 0.6322 -0.7638 -0.1303
vn 0.7802 -0.6169 0.1036
vn 0.6586 -0.6427 0.3913
vn 0.6792 -0.3487 0.6459
vn 0.8179 -0.0781 0.5701
vn 0.6985 0.1851 0.6912
vn 0.7007 0.5186 0.4900
vn 0.8218 0.5329 0.2014
vn 0.6862 0.7274 -0.0035
vn 0.6217 -0.6120 -0.4888
vn 0.7609 -0.3388 -0.5533
vn 0.9244 -0.2015 -0.3240
vn 0.6670 0.6395 -0.3824
vn 0.7866 0.3718 -0.4929
vn 0.6387 0.2348 -0.7328
s off
f 1//1 14//1 13//1
f 2//2 14//2 16//2
f 1//3 13//3 18//3
f 1//4 18//4 20//4
f 1//5 20//5 17//5
f 2//6 16//6 23//6
f 3//7 15//7 25//7
f 4//8 19//8 27//8
f 5//9 21//9 29//9
f 6//10 22//10 31//10
f 2//11 23//11 26//11
f 3//12 25//12 28//12
f 4//13 27//13 30//13
f 5//14 29//14 32//14
f 6//15 31//15 24//15
f 7//16 33//16 38//16
f 8//17 34//17 40//17
f 9//18 35//18 41//18
f 10//19 36//19 42//19
f 11//20 37//20 39//20
f 39//21 42//21 12//21
f 39//22 37//22 42//22
f 37//23 10//23 42//23
f 42//24 41//24 12//24
f 42//25 36//25 41//25
f 36//26 9//26 41//26
f 41//27 40//27 12//27
f 41//28 35//28 40//28
f 35//29 8//29 40//29
f 40//30 38//30 12//30
f 40//31 34//31 38//31
f 34//32 7//32 38//32
f 38//33 39//33 12//33
f 38//34 33//34 39//34
f 33//35 11//35 39//35
f 24//36 37//36 11//36
f 24//37 31//37 37//37
f 31//38 10//38 37//38
f 32//39 36//39 10//39
f 32//40 29//40 36//40
f 29//41 9//41 36//41
f 30//42 35//42 9//42
f 30//43 27//43 35//43
f 27//44 8//44 35//44
f 28//45 34//45 8//45
f 28//46 25//46 34//46
f 25//47 7//47 34//47
f 26//48 33//48 7//48
f 26//49 23//49 33//49
f 23//50 11//50 33//50
f 31//51 32//51 10//51
f 31//52 22//52 32//52
f 22//53 5//53 32//53
f 29//54 30//54 9//54
f 29//55 21//55 30//55
f 21//56 4//56 30//56
f 27//57 28//57 8//57
f 27//58 19//58 28//58
f 19//59 3//59 28//59
f 25//60 26//60 7//60
f 25//61 15//61 26//61
f 15//62 2//62 26//62
f 23//63 24//63 11//63
f 23//64 16//64 24//64
f 16//65 6//65 24//65
f 17//66 22//66 6//66
f 17//67 20//67 22//67
f 20//68 5//68 22//68
f 20//69 21//69 5//69
f 20//70 18//70 21//70
f 18//71 4//71 21//71
f 18//72 19//72 4//72
f 18//73 13//73 19//73
f 13//74 3//74 19//74
f 16//75 17//75 6//75
f 16//76 14//76 17//76
f 14//77 1//77 17//77
f 13//78 15//78 3//78
f 13//79 14//79 15//79
f 14//80 2//80 15//80
